<?xml version="1.0" encoding="utf-8"?>
<!-- Generator: Adobe Illustrator 17.0.0, SVG Export Plug-In . SVG Version: 6.00 Build 0)  -->
<!DOCTYPE svg PUBLIC "-//W3C//DTD SVG 1.1//EN" "http://www.w3.org/Graphics/SVG/1.1/DTD/svg11.dtd">
<svg version="1.1"
	 id="Layer_1" xmlns:dc="http://purl.org/dc/elements/1.1/" xmlns:rdf="http://www.w3.org/1999/02/22-rdf-syntax-ns#" xmlns:cc="http://creativecommons.org/ns#" xmlns:svg="http://www.w3.org/2000/svg"
	 xmlns="http://www.w3.org/2000/svg" xmlns:xlink="http://www.w3.org/1999/xlink" x="0px" y="0px" width="101px" height="121px"
	 viewBox="0 0 101 121" enable-background="new 0 0 101 121" xml:space="preserve">
<g>
	<path fill="#FFFFFF" d="M28.709,28.63c3.516,0,7.758,0.726,12.727,2.179c5.015,1.454,8.343,2.18,9.984,2.18
		c2.109,0,5.555-0.82,10.336-2.461c4.781-1.64,8.93-2.461,12.445-2.461c5.766,0,10.899,1.547,15.399,4.641
		c2.531,1.781,5.039,4.195,7.523,7.242c-3.75,3.188-6.492,6.024-8.226,8.508c-3.141,4.5-4.711,9.469-4.711,14.906
		c0,5.953,1.664,11.32,4.992,16.102c3.328,4.781,7.125,7.804,11.392,9.07c-1.783,5.766-4.736,11.794-8.861,18.074
		c-6.234,9.42-12.422,14.13-18.562,14.13c-2.438,0-5.813-0.77-10.125-2.32c-4.266-1.55-7.875-2.32-10.828-2.32
		c-2.954,0-6.399,0.8-10.336,2.39c-3.891,1.64-7.055,2.46-9.493,2.46c-7.359,0-14.578-6.23-21.656-18.7
		C3.631,89.919,0.092,77.825,0.092,65.966c0-11.016,2.695-19.992,8.086-26.93C13.615,32.098,20.459,28.63,28.709,28.63
		 M73.006,0.927c0.187,0.609,0.305,1.149,0.352,1.617c0.046,0.469,0.07,0.938,0.07,1.406c0,3-0.703,6.281-2.109,9.844
		c-1.407,3.562-3.633,6.867-6.68,9.914c-2.625,2.578-5.227,4.312-7.805,5.203c-1.64,0.516-4.125,0.914-7.453,1.195
		c0.094-7.125,1.945-13.289,5.555-18.492C58.592,6.411,64.615,2.849,73.006,0.927"/>
</g>
</svg>
